<?xml version="1.0" encoding="UTF-8" standalone="no"?>
<!-- Created with Inkscape (http://www.inkscape.org/) -->

<svg
   width="512"
   height="256"
   viewBox="0 0 135.46667 67.733334"
   version="1.1"
   id="svg1"
   inkscape:version="1.4 (86a8ad7, 2024-10-11)"
   sodipodi:docname="Zeichnung.svg"
   xmlns:inkscape="http://www.inkscape.org/namespaces/inkscape"
   xmlns:sodipodi="http://sodipodi.sourceforge.net/DTD/sodipodi-0.dtd"
   xmlns="http://www.w3.org/2000/svg"
   xmlns:svg="http://www.w3.org/2000/svg">
  <sodipodi:namedview
     id="namedview1"
     pagecolor="#ffffff"
     bordercolor="#000000"
     borderopacity="0.25"
     inkscape:showpageshadow="false"
     inkscape:pageopacity="0.0"
     inkscape:pagecheckerboard="0"
     inkscape:deskcolor="#d1d1d1"
     inkscape:document-units="px"
     showborder="true"
     borderlayer="false"
     inkscape:zoom="2"
     inkscape:cx="255.25"
     inkscape:cy="128.75"
     inkscape:window-width="1143"
     inkscape:window-height="1211"
     inkscape:window-x="570"
     inkscape:window-y="64"
     inkscape:window-maximized="0"
     inkscape:current-layer="layer1" />
  <defs
     id="defs1" />
  <g
     inkscape:label="Ebene 1"
     inkscape:groupmode="layer"
     id="layer1">
    <path
       d="m 17.495991,17.784882 c -2.247634,0.54319 -6.670939,2.50745 -7.258314,3.22342 -0.5296946,0.64558 -0.2764886,10.926225 0.312473,12.694175 1.405996,4.2201 4.597665,8.01899 8.663521,10.31081 1.22608,0.69109 2.46988,1.25677 2.7641,1.25677 0.91387,0 4.54713,-2.31749 6.4553,-4.11745 2.20583,-2.08094 3.74782,-4.3815 4.70032,-7.01172 0.66781,-1.84441 0.71914,-2.30928 0.82101,-7.4213 l 0.10874,-5.453315 -0.81677,-0.58156 c -1.42055,-1.0115 -4.67677,-2.38257 -6.95669,-2.9292 -2.7596,-0.66146 -5.97905,-0.65088 -8.79369,0.0294 m -0.30242,1.37186 c -1.17316,0.33047 -2.959098,1.01627 -3.968748,1.52427 l -1.835944,0.92339 -0.07223,4.693445 c -0.05609,3.63855 0.02328,5.06412 0.353219,6.34259 0.868627,3.36682 3.207544,6.8117 6.051283,8.91222 1.90976,1.41103 4.05077,2.45163 4.65138,2.26113 1.05251,-0.33417 4.42462,-2.75352 5.8076,-4.16692 1.7309,-1.769 3.30544,-4.29048 3.92377,-6.28306 0.36036,-1.16073 0.45164,-2.49423 0.45164,-6.58945 v -5.134495 l -1.71979,-0.86069 c -3.2504,-1.62692 -4.87203,-2.04259 -8.33437,-2.13704 -2.67467,-0.0728 -3.51102,0.008 -5.30781,0.51461 m 1.60364,0.82497 c -2.279118,0.52785 -4.062674,1.17264 -5.394851,1.94998 l -1.161257,0.67787 0.147373,4.517225 c 0.153194,4.69132 0.403225,5.92243 1.731963,8.52672 1.188244,2.32966 4.258732,5.25754 6.828892,6.51246 l 1.09379,0.53393 1.5957,-0.96944 c 2.2733,-1.38086 4.08781,-3.0988 5.43031,-5.14111 2.00634,-3.05171 2.1635,-3.72772 2.1635,-9.3091 v -4.892675 l -1.32292,-0.71702 c -3.00355,-1.62798 -8.05921,-2.39633 -11.1125,-1.68884"
       stroke="none"
       fill="#1394cd"
       fill-rule="evenodd"
       id="path1"
       sodipodi:nodetypes="ccccsccccccccccccccccscccccccccccccsccc"
       style="stroke-width:0.264583" />
  </g>
</svg>
